<svg width="382" height="60" viewBox="0 0 382 60" fill="none" xmlns="http://www.w3.org/2000/svg">
<g clip-path="url(#clip0_34477_2889)">
<path d="M4.95672 0H0V35.7986H4.95672V22.5177C4.95672 20.2709 5.51557 18.4984 6.63326 17.2502C7.75095 16.002 9.2817 15.353 11.1769 15.353C12.8049 15.353 14.1655 15.9521 15.2589 17.1004C16.3523 18.2738 16.9112 19.7466 16.9112 21.5191V35.8236H21.8922V21.5191C21.8922 18.2238 20.9932 15.6276 19.1951 13.6804C17.3971 11.7332 15.0402 10.7596 12.1731 10.7596C11.347 10.7596 10.5209 10.8594 9.71906 11.0841C8.89294 11.3088 8.2369 11.5584 7.70235 11.833C7.16781 12.1076 6.65756 12.4072 6.1959 12.7567C5.73424 13.1062 5.41838 13.3558 5.27259 13.5056C5.1268 13.6554 5.00532 13.7552 4.95672 13.8301V0Z" fill="#F0145A"/>
<path d="M32.9726 0H27.8628V35.7689H32.9726V0Z" fill="#323264"/>
<path d="M63.1114 25.2935L63.3669 22.7386C63.3669 19.315 62.2428 16.4535 59.9433 14.1541C57.6439 11.8546 54.7824 10.7305 51.3588 10.7305C47.9352 10.7305 44.9715 11.9568 42.5188 14.4096C40.0661 16.8623 38.8397 19.7749 38.8397 23.2496C38.8397 26.8265 40.1172 29.8924 42.621 32.4473C45.1248 35.0022 48.1396 36.2797 51.6143 36.2797C52.9429 36.2797 54.1692 36.0753 55.3956 35.7176C56.6219 35.3088 57.6439 34.9 58.3593 34.4912C59.1258 34.0313 59.8922 33.5204 60.5565 32.9583C61.2208 32.3962 61.6807 31.9874 61.8851 31.7319C62.0895 31.4764 62.2428 31.3231 62.345 31.1698L59.0236 27.8484L58.2571 28.8193C57.7461 29.4325 56.8774 30.0457 55.6511 30.7099C54.3736 31.3742 53.0451 31.6808 51.6143 31.6808C49.6215 31.6808 47.9352 31.0676 46.5045 29.7902C45.0737 28.5127 44.205 27.0309 43.9495 25.2935H63.1114ZM51.3588 15.0738C53.2494 15.0738 54.7824 15.6359 56.0599 16.709C57.2862 17.8331 58.0527 19.2128 58.3593 20.9501H44.1539C44.6138 19.2128 45.4314 17.8331 46.7089 16.709C47.9352 15.6359 49.5193 15.0738 51.3588 15.0738Z" fill="#323264"/>
<path d="M86.9429 34.2868C86.9429 36.5351 86.2786 38.3747 84.8989 39.8054C83.5704 41.1851 81.8841 41.9005 79.7891 41.9005C78.8693 41.9005 77.9496 41.7472 77.0809 41.4917C76.2122 41.2362 75.5479 40.9296 74.9859 40.5719C74.4238 40.2142 73.9128 39.8565 73.4018 39.3967C72.9419 38.9368 72.6353 38.6302 72.482 38.4769C72.3287 38.3236 72.2265 38.1703 72.1244 38.0681L68.803 41.3895L69.2117 41.9005C69.4672 42.2582 69.9271 42.718 70.5403 43.229C71.1535 43.6889 71.8689 44.1999 72.6864 44.7109C73.504 45.1708 74.526 45.5796 75.8034 45.9372C77.0809 46.2949 78.4094 46.4993 79.7891 46.4993C83.2638 46.4993 86.1253 45.3241 88.5269 42.9735C90.8774 40.5719 92.0527 37.7104 92.0527 34.2357V11.2415H86.9429V13.7964L86.0742 13.0299C85.5121 12.5189 84.6434 12.0079 83.4171 11.4969C82.1907 10.986 80.8622 10.7305 79.5336 10.7305C76.4166 10.7305 73.7595 11.9057 71.4601 14.3074C69.1606 16.709 68.0365 19.5705 68.0365 22.9941C68.0365 26.4177 69.1606 29.2792 71.4601 31.6808C73.7595 34.0824 76.4166 35.2577 79.5336 35.2577C80.4023 35.2577 81.2199 35.1555 82.0885 34.9511C82.9061 34.6956 83.5704 34.4401 84.1325 34.1846C84.6945 33.9291 85.2055 33.6225 85.6654 33.2648C86.1253 32.9072 86.483 32.6517 86.5852 32.5495L86.9429 32.1918V34.2868ZM73.1463 22.9941C73.1463 20.8479 73.8106 19.0595 75.1903 17.5777C76.5699 16.0958 78.2051 15.3293 80.0446 15.3293C81.8841 15.3293 83.5193 16.0958 84.8989 17.5777C86.2275 19.0595 86.9429 20.8479 86.9429 22.9941C86.9429 25.1402 86.2275 26.9287 84.8989 28.4105C83.5193 29.8924 81.8841 30.6588 80.0446 30.6588C78.2051 30.6588 76.5699 29.8924 75.1903 28.4105C73.8106 26.9287 73.1463 25.1402 73.1463 22.9941Z" fill="#323264"/>
<path d="M118.724 35.7687V19.9282C118.724 17.3222 117.753 15.1249 115.863 13.3876C113.972 11.5991 111.519 10.7305 108.504 10.7305C107.329 10.7305 106.154 10.8838 105.03 11.1904C103.906 11.548 102.986 11.9057 102.321 12.3145C101.657 12.7233 100.993 13.1832 100.38 13.7453C99.7666 14.2563 99.4089 14.6139 99.2045 14.8183C99.0512 15.0227 98.8979 15.176 98.7957 15.3293L102.117 18.6507L102.781 17.782C103.19 17.22 103.906 16.709 104.979 16.1469C106.052 15.5848 107.227 15.3293 108.504 15.3293C109.986 15.3293 111.213 15.7892 112.183 16.6579C113.154 17.5266 113.614 18.6507 113.614 19.9282L104.672 21.4611C102.475 21.8188 100.686 22.6875 99.46 24.0672C98.1825 25.4468 97.5182 27.1331 97.5182 29.1259C97.5182 31.0165 98.3358 32.6517 99.971 34.0824C101.657 35.5643 103.701 36.2797 106.205 36.2797C107.074 36.2797 107.891 36.1775 108.709 35.922C109.577 35.7176 110.242 35.4621 110.804 35.2066C111.366 34.9511 111.877 34.6445 112.337 34.2868C112.797 33.9291 113.103 33.6736 113.308 33.5715C113.461 33.4182 113.563 33.2649 113.614 33.2138V35.7687H118.724ZM106.971 31.6808C105.643 31.6808 104.57 31.3742 103.803 30.761C102.986 30.1479 102.628 29.4325 102.628 28.6149C102.628 27.7462 102.884 26.9798 103.446 26.4177C104.008 25.8556 104.774 25.4468 105.694 25.2935L113.614 24.0161V24.527C113.614 26.8265 113.052 28.5638 111.877 29.8413C110.702 31.0676 109.066 31.6808 106.971 31.6808Z" fill="#323264"/>
<path d="M130 0H124.89V35.7689H130V0Z" fill="#323264"/>
<path d="M0 53.1185H1.59915V58.7253H5.06396V60.0283H0V53.1185Z" fill="#323264"/>
<path d="M15.5016 58.5477H12.2934L11.6814 60.0283H10.0428L13.1226 53.1185H14.702L17.7917 60.0283H16.1136L15.5016 58.5477ZM14.9982 57.3335L13.9025 54.688L12.8067 57.3335H14.9982Z" fill="#323264"/>
<path d="M33.5121 53.1185L31.2516 60.0283H29.534L28.0138 55.3494L26.4443 60.0283H24.7366L22.4662 53.1185H24.1245L25.6842 57.9751L27.313 53.1185H28.7937L30.3731 58.0146L31.9821 53.1185H33.5121Z" fill="#323264"/>
<path d="M50.5232 60.1468C49.819 60.1468 49.1807 59.9954 48.6082 59.6927C48.0422 59.3834 47.5947 58.959 47.2657 58.4193C46.9432 57.8731 46.782 57.2578 46.782 56.5734C46.782 55.889 46.9432 55.277 47.2657 54.7373C47.5947 54.1911 48.0422 53.7667 48.6082 53.464C49.1807 53.1547 49.8223 53 50.5331 53C51.1319 53 51.6716 53.1053 52.152 53.3159C52.6389 53.5265 53.047 53.8292 53.376 54.224L52.3494 55.1717C51.8821 54.6321 51.303 54.3622 50.612 54.3622C50.1843 54.3622 49.8026 54.4577 49.467 54.6485C49.1313 54.8328 48.8681 55.0927 48.6773 55.4283C48.493 55.764 48.4009 56.1456 48.4009 56.5734C48.4009 57.0012 48.493 57.3828 48.6773 57.7185C48.8681 58.0541 49.1313 58.3173 49.467 58.5082C49.8026 58.6924 50.1843 58.7846 50.612 58.7846C51.303 58.7846 51.8821 58.5115 52.3494 57.9653L53.376 58.9129C53.047 59.3143 52.6389 59.6203 52.152 59.8309C51.665 60.0415 51.1221 60.1468 50.5232 60.1468Z" fill="#323264"/>
<path d="M62.5933 60.1468C61.876 60.1468 61.2278 59.9922 60.6487 59.6829C60.0761 59.3736 59.6253 58.9491 59.2963 58.4095C58.9738 57.8632 58.8126 57.2512 58.8126 56.5734C58.8126 55.8956 58.9738 55.2868 59.2963 54.7472C59.6253 54.201 60.0761 53.7733 60.6487 53.464C61.2278 53.1547 61.876 53 62.5933 53C63.3106 53 63.9555 53.1547 64.5281 53.464C65.1006 53.7733 65.5514 54.201 65.8804 54.7472C66.2095 55.2868 66.374 55.8956 66.374 56.5734C66.374 57.2512 66.2095 57.8632 65.8804 58.4095C65.5514 58.9491 65.1006 59.3736 64.5281 59.6829C63.9555 59.9922 63.3106 60.1468 62.5933 60.1468ZM62.5933 58.7846C63.0013 58.7846 63.3698 58.6924 63.6989 58.5082C64.0279 58.3173 64.2846 58.0541 64.4688 57.7185C64.6597 57.3828 64.7551 57.0012 64.7551 56.5734C64.7551 56.1456 64.6597 55.764 64.4688 55.4283C64.2846 55.0927 64.0279 54.8328 63.6989 54.6485C63.3698 54.4577 63.0013 54.3622 62.5933 54.3622C62.1853 54.3622 61.8168 54.4577 61.4877 54.6485C61.1587 54.8328 60.8987 55.0927 60.7079 55.4283C60.5236 55.764 60.4315 56.1456 60.4315 56.5734C60.4315 57.0012 60.5236 57.3828 60.7079 57.7185C60.8987 58.0541 61.1587 58.3173 61.4877 58.5082C61.8168 58.6924 62.1853 58.7846 62.5933 58.7846Z" fill="#323264"/>
<path d="M78.7995 60.0283L78.7896 55.8824L76.7561 59.2979H76.0355L74.0119 55.9713V60.0283H72.5115V53.1185H73.8342L76.4205 57.4125L78.9673 53.1185H80.2802L80.2999 60.0283H78.7995Z" fill="#323264"/>
<path d="M89.8659 53.1185C90.478 53.1185 91.0077 53.2205 91.4552 53.4245C91.9093 53.6285 92.2581 53.918 92.5016 54.2931C92.7451 54.6682 92.8668 55.1125 92.8668 55.6258C92.8668 56.1325 92.7451 56.5767 92.5016 56.9584C92.2581 57.3335 91.9093 57.623 91.4552 57.8271C91.0077 58.0245 90.478 58.1232 89.8659 58.1232H88.4741V60.0283H86.8749V53.1185H89.8659ZM89.7771 56.8202C90.2575 56.8202 90.6227 56.7182 90.8728 56.5142C91.1229 56.3036 91.2479 56.0074 91.2479 55.6258C91.2479 55.2375 91.1229 54.9414 90.8728 54.7373C90.6227 54.5268 90.2575 54.4215 89.7771 54.4215H88.4741V56.8202H89.7771Z" fill="#323264"/>
<path d="M103.148 58.5477H99.9396L99.3276 60.0283H97.6889L100.769 53.1185H102.348L105.438 60.0283H103.76L103.148 58.5477ZM102.644 57.3335L101.549 54.688L100.453 57.3335H102.644Z" fill="#323264"/>
<path d="M117.428 53.1185V60.0283H116.115L112.67 55.8331V60.0283H111.09V53.1185H112.413L115.848 57.3137V53.1185H117.428Z" fill="#323264"/>
<path d="M127.315 57.5803V60.0283H125.716V57.5605L123.041 53.1185H124.739L126.585 56.1884L128.43 53.1185H130L127.315 57.5803Z" fill="#323264"/>
<path fill-rule="evenodd" clip-rule="evenodd" d="M149.175 0H155L139.825 47H134L149.175 0Z" fill="#F0145A"/>
<path d="M172.32 15.92C174.096 15.92 175.704 16.328 177.144 17.144C178.584 17.936 179.712 19.064 180.528 20.528C181.344 21.992 181.752 23.66 181.752 25.532C181.752 27.428 181.344 29.108 180.528 30.572C179.712 32.036 178.584 33.176 177.144 33.992C175.728 34.784 174.12 35.18 172.32 35.18C170.784 35.18 169.392 34.868 168.144 34.244C166.92 33.596 165.912 32.66 165.12 31.436V41.984H162.564V16.064H165.012V19.808C165.78 18.56 166.788 17.6 168.036 16.928C169.308 16.256 170.736 15.92 172.32 15.92ZM172.14 32.912C173.46 32.912 174.66 32.612 175.74 32.012C176.82 31.388 177.66 30.512 178.26 29.384C178.884 28.256 179.196 26.972 179.196 25.532C179.196 24.092 178.884 22.82 178.26 21.716C177.66 20.588 176.82 19.712 175.74 19.088C174.66 18.464 173.46 18.152 172.14 18.152C170.796 18.152 169.584 18.464 168.504 19.088C167.448 19.712 166.608 20.588 165.984 21.716C165.384 22.82 165.084 24.092 165.084 25.532C165.084 26.972 165.384 28.256 165.984 29.384C166.608 30.512 167.448 31.388 168.504 32.012C169.584 32.612 170.796 32.912 172.14 32.912ZM204.026 16.064V35H201.578V31.544C200.906 32.696 199.982 33.596 198.806 34.244C197.63 34.868 196.286 35.18 194.774 35.18C192.302 35.18 190.346 34.496 188.906 33.128C187.49 31.736 186.782 29.708 186.782 27.044V16.064H189.338V26.792C189.338 28.784 189.83 30.296 190.814 31.328C191.798 32.36 193.202 32.876 195.026 32.876C197.018 32.876 198.59 32.276 199.742 31.076C200.894 29.852 201.47 28.16 201.47 26V16.064H204.026ZM220.941 15.92C222.717 15.92 224.325 16.328 225.765 17.144C227.205 17.936 228.333 19.064 229.149 20.528C229.965 21.992 230.373 23.66 230.373 25.532C230.373 27.404 229.965 29.072 229.149 30.536C228.333 32 227.205 33.14 225.765 33.956C224.325 34.772 222.717 35.18 220.941 35.18C219.357 35.18 217.929 34.844 216.657 34.172C215.409 33.5 214.401 32.528 213.633 31.256V35H211.185V8.288H213.741V19.664C214.533 18.44 215.541 17.516 216.765 16.892C218.013 16.244 219.405 15.92 220.941 15.92ZM220.761 32.912C222.081 32.912 223.281 32.612 224.361 32.012C225.441 31.388 226.281 30.512 226.881 29.384C227.505 28.256 227.817 26.972 227.817 25.532C227.817 24.092 227.505 22.808 226.881 21.68C226.281 20.552 225.441 19.688 224.361 19.088C223.281 18.464 222.081 18.152 220.761 18.152C219.417 18.152 218.205 18.464 217.125 19.088C216.069 19.688 215.229 20.552 214.605 21.68C214.005 22.808 213.705 24.092 213.705 25.532C213.705 26.972 214.005 28.256 214.605 29.384C215.229 30.512 216.069 31.388 217.125 32.012C218.205 32.612 219.417 32.912 220.761 32.912ZM235.584 8.288H238.14V35H235.584V8.288ZM245.252 16.064H247.808V35H245.252V16.064ZM246.548 11.924C246.02 11.924 245.576 11.744 245.216 11.384C244.856 11.024 244.676 10.592 244.676 10.088C244.676 9.608 244.856 9.188 245.216 8.828C245.576 8.468 246.02 8.288 246.548 8.288C247.076 8.288 247.52 8.468 247.88 8.828C248.24 9.164 248.42 9.572 248.42 10.052C248.42 10.58 248.24 11.024 247.88 11.384C247.52 11.744 247.076 11.924 246.548 11.924ZM262.767 35.18C260.895 35.18 259.215 34.772 257.727 33.956C256.263 33.14 255.111 32 254.271 30.536C253.431 29.048 253.011 27.38 253.011 25.532C253.011 23.684 253.431 22.028 254.271 20.564C255.111 19.1 256.263 17.96 257.727 17.144C259.215 16.328 260.895 15.92 262.767 15.92C264.399 15.92 265.851 16.244 267.123 16.892C268.419 17.516 269.439 18.44 270.183 19.664L268.275 20.96C267.651 20.024 266.859 19.328 265.899 18.872C264.939 18.392 263.895 18.152 262.767 18.152C261.399 18.152 260.163 18.464 259.059 19.088C257.979 19.688 257.127 20.552 256.503 21.68C255.903 22.808 255.603 24.092 255.603 25.532C255.603 26.996 255.903 28.292 256.503 29.42C257.127 30.524 257.979 31.388 259.059 32.012C260.163 32.612 261.399 32.912 262.767 32.912C263.895 32.912 264.939 32.684 265.899 32.228C266.859 31.772 267.651 31.076 268.275 30.14L270.183 31.436C269.439 32.66 268.419 33.596 267.123 34.244C265.827 34.868 264.375 35.18 262.767 35.18ZM281.829 15.92C284.301 15.92 286.197 16.544 287.517 17.792C288.837 19.016 289.497 20.84 289.497 23.264V35H287.049V32.048C286.473 33.032 285.621 33.8 284.493 34.352C283.389 34.904 282.069 35.18 280.533 35.18C278.421 35.18 276.741 34.676 275.493 33.668C274.245 32.66 273.621 31.328 273.621 29.672C273.621 28.064 274.197 26.768 275.349 25.784C276.525 24.8 278.385 24.308 280.929 24.308H286.941V23.156C286.941 21.524 286.485 20.288 285.573 19.448C284.661 18.584 283.329 18.152 281.577 18.152C280.377 18.152 279.225 18.356 278.121 18.764C277.017 19.148 276.069 19.688 275.277 20.384L274.125 18.476C275.085 17.66 276.237 17.036 277.581 16.604C278.925 16.148 280.341 15.92 281.829 15.92ZM280.929 33.164C282.369 33.164 283.605 32.84 284.637 32.192C285.669 31.52 286.437 30.56 286.941 29.312V26.216H281.001C277.761 26.216 276.141 27.344 276.141 29.6C276.141 30.704 276.561 31.58 277.401 32.228C278.241 32.852 279.417 33.164 280.929 33.164ZM306.411 33.848C305.931 34.28 305.331 34.616 304.611 34.856C303.915 35.072 303.183 35.18 302.415 35.18C300.639 35.18 299.271 34.7 298.311 33.74C297.351 32.78 296.871 31.424 296.871 29.672V18.224H293.487V16.064H296.871V11.924H299.427V16.064H305.187V18.224H299.427V29.528C299.427 30.656 299.703 31.52 300.255 32.12C300.831 32.696 301.647 32.984 302.703 32.984C303.231 32.984 303.735 32.9 304.215 32.732C304.719 32.564 305.151 32.324 305.511 32.012L306.411 33.848ZM311.064 16.064H313.62V35H311.064V16.064ZM312.36 11.924C311.832 11.924 311.388 11.744 311.028 11.384C310.668 11.024 310.488 10.592 310.488 10.088C310.488 9.608 310.668 9.188 311.028 8.828C311.388 8.468 311.832 8.288 312.36 8.288C312.888 8.288 313.332 8.468 313.692 8.828C314.052 9.164 314.232 9.572 314.232 10.052C314.232 10.58 314.052 11.024 313.692 11.384C313.332 11.744 312.888 11.924 312.36 11.924ZM328.472 35.18C326.648 35.18 325.004 34.772 323.54 33.956C322.076 33.116 320.924 31.964 320.084 30.5C319.244 29.036 318.824 27.38 318.824 25.532C318.824 23.684 319.244 22.028 320.084 20.564C320.924 19.1 322.076 17.96 323.54 17.144C325.004 16.328 326.648 15.92 328.472 15.92C330.296 15.92 331.94 16.328 333.404 17.144C334.868 17.96 336.008 19.1 336.824 20.564C337.664 22.028 338.084 23.684 338.084 25.532C338.084 27.38 337.664 29.036 336.824 30.5C336.008 31.964 334.868 33.116 333.404 33.956C331.94 34.772 330.296 35.18 328.472 35.18ZM328.472 32.912C329.816 32.912 331.016 32.612 332.072 32.012C333.152 31.388 333.992 30.512 334.592 29.384C335.192 28.256 335.492 26.972 335.492 25.532C335.492 24.092 335.192 22.808 334.592 21.68C333.992 20.552 333.152 19.688 332.072 19.088C331.016 18.464 329.816 18.152 328.472 18.152C327.128 18.152 325.916 18.464 324.836 19.088C323.78 19.688 322.94 20.552 322.316 21.68C321.716 22.808 321.416 24.092 321.416 25.532C321.416 26.972 321.716 28.256 322.316 29.384C322.94 30.512 323.78 31.388 324.836 32.012C325.916 32.612 327.128 32.912 328.472 32.912ZM352.95 15.92C355.326 15.92 357.21 16.616 358.602 18.008C360.018 19.376 360.726 21.38 360.726 24.02V35H358.17V24.272C358.17 22.304 357.678 20.804 356.694 19.772C355.71 18.74 354.306 18.224 352.482 18.224C350.442 18.224 348.822 18.836 347.622 20.06C346.446 21.26 345.858 22.928 345.858 25.064V35H343.302V16.064H345.75V19.556C346.446 18.404 347.406 17.516 348.63 16.892C349.878 16.244 351.318 15.92 352.95 15.92ZM372.742 35.18C371.206 35.18 369.73 34.964 368.314 34.532C366.922 34.076 365.83 33.512 365.038 32.84L366.19 30.824C366.982 31.448 367.978 31.964 369.178 32.372C370.378 32.756 371.626 32.948 372.922 32.948C374.65 32.948 375.922 32.684 376.738 32.156C377.578 31.604 377.998 30.836 377.998 29.852C377.998 29.156 377.77 28.616 377.314 28.232C376.858 27.824 376.282 27.524 375.586 27.332C374.89 27.116 373.966 26.912 372.814 26.72C371.278 26.432 370.042 26.144 369.106 25.856C368.17 25.544 367.366 25.028 366.694 24.308C366.046 23.588 365.722 22.592 365.722 21.32C365.722 19.736 366.382 18.44 367.702 17.432C369.022 16.424 370.858 15.92 373.21 15.92C374.434 15.92 375.658 16.088 376.882 16.424C378.106 16.736 379.114 17.156 379.906 17.684L378.79 19.736C377.23 18.656 375.37 18.116 373.21 18.116C371.578 18.116 370.342 18.404 369.502 18.98C368.686 19.556 368.278 20.312 368.278 21.248C368.278 21.968 368.506 22.544 368.962 22.976C369.442 23.408 370.03 23.732 370.726 23.948C371.422 24.14 372.382 24.344 373.606 24.56C375.118 24.848 376.33 25.136 377.242 25.424C378.154 25.712 378.934 26.204 379.582 26.9C380.23 27.596 380.554 28.556 380.554 29.78C380.554 31.436 379.858 32.756 378.466 33.74C377.098 34.7 375.19 35.18 372.742 35.18Z" fill="#323264"/>
</g>
<defs>
<clipPath id="clip0_34477_2889">
<rect width="382" height="60" fill="white"/>
</clipPath>
</defs>
</svg>
