<svg width="254" height="60" viewBox="0 0 254 60" fill="none" xmlns="http://www.w3.org/2000/svg">
<g clip-path="url(#clip0_35505_2679)">
<path d="M4.95672 6.10352e-05H0V35.7987H4.95672V22.5177C4.95672 20.271 5.51557 18.4985 6.63326 17.2503C7.75095 16.0021 9.2817 15.353 11.1769 15.353C12.8049 15.353 14.1655 15.9522 15.2589 17.1005C16.3523 18.2738 16.9112 19.7467 16.9112 21.5192V35.8236H21.8922V21.5192C21.8922 18.2239 20.9932 15.6276 19.1951 13.6804C17.3971 11.7332 15.0402 10.7596 12.1731 10.7596C11.347 10.7596 10.5209 10.8595 9.71906 11.0841C8.89294 11.3088 8.2369 11.5585 7.70235 11.8331C7.16781 12.1077 6.65756 12.4072 6.1959 12.7567C5.73424 13.1062 5.41838 13.3559 5.27259 13.5057C5.1268 13.6555 5.00532 13.7553 4.95672 13.8302V6.10352e-05Z" fill="#F0145A"/>
<path d="M32.9726 0H27.8628V35.7689H32.9726V0Z" fill="#323264"/>
<path d="M63.1114 25.2931L63.3669 22.7382C63.3669 19.3146 62.2428 16.4531 59.9433 14.1537C57.6439 11.8543 54.7824 10.7301 51.3588 10.7301C47.9352 10.7301 44.9715 11.9565 42.5188 14.4092C40.0661 16.8619 38.8397 19.7745 38.8397 23.2492C38.8397 26.8261 40.1172 29.892 42.621 32.4469C45.1248 35.0018 48.1396 36.2793 51.6143 36.2793C52.9429 36.2793 54.1692 36.0749 55.3956 35.7172C56.6219 35.3084 57.6439 34.8996 58.3593 34.4909C59.1258 34.031 59.8922 33.52 60.5565 32.9579C61.2208 32.3958 61.6807 31.987 61.8851 31.7315C62.0895 31.4761 62.2428 31.3228 62.345 31.1695L59.0236 27.8481L58.2571 28.8189C57.7461 29.4321 56.8774 30.0453 55.6511 30.7096C54.3736 31.3739 53.0451 31.6804 51.6143 31.6804C49.6215 31.6804 47.9352 31.0673 46.5045 29.7898C45.0737 28.5123 44.205 27.0305 43.9495 25.2931H63.1114ZM51.3588 15.0735C53.2494 15.0735 54.7824 15.6355 56.0599 16.7086C57.2862 17.8328 58.0527 19.2124 58.3593 20.9498H44.1539C44.6138 19.2124 45.4314 17.8328 46.7089 16.7086C47.9352 15.6355 49.5193 15.0735 51.3588 15.0735Z" fill="#323264"/>
<path d="M86.9429 34.2865C86.9429 36.5348 86.2786 38.3743 84.8989 39.8051C83.5704 41.1847 81.8841 41.9001 79.7891 41.9001C78.8693 41.9001 77.9496 41.7468 77.0809 41.4913C76.2122 41.2358 75.5479 40.9292 74.9859 40.5715C74.4238 40.2139 73.9128 39.8562 73.4018 39.3963C72.9419 38.9364 72.6353 38.6298 72.482 38.4765C72.3287 38.3232 72.2265 38.1699 72.1244 38.0677L68.803 41.3891L69.2117 41.9001C69.4672 42.2578 69.9271 42.7177 70.5403 43.2287C71.1535 43.6885 71.8689 44.1995 72.6864 44.7105C73.504 45.1704 74.526 45.5792 75.8034 45.9369C77.0809 46.2946 78.4094 46.499 79.7891 46.499C83.2638 46.499 86.1253 45.3237 88.5269 42.9732C90.8774 40.5716 92.0527 37.71 92.0527 34.2354V11.2411H86.9429V13.796L86.0742 13.0295C85.5121 12.5185 84.6434 12.0076 83.4171 11.4966C82.1907 10.9856 80.8622 10.7301 79.5336 10.7301C76.4166 10.7301 73.7595 11.9054 71.4601 14.307C69.1606 16.7086 68.0365 19.5701 68.0365 22.9937C68.0365 26.4173 69.1606 29.2788 71.4601 31.6804C73.7595 34.0821 76.4166 35.2573 79.5336 35.2573C80.4023 35.2573 81.2199 35.1551 82.0885 34.9507C82.9061 34.6952 83.5704 34.4397 84.1325 34.1843C84.6945 33.9288 85.2055 33.6222 85.6654 33.2645C86.1253 32.9068 86.483 32.6513 86.5852 32.5491L86.9429 32.1914V34.2865ZM73.1463 22.9937C73.1463 20.8476 73.8106 19.0591 75.1903 17.5773C76.5699 16.0954 78.2051 15.329 80.0446 15.329C81.8841 15.329 83.5193 16.0954 84.8989 17.5773C86.2275 19.0591 86.9429 20.8476 86.9429 22.9937C86.9429 25.1398 86.2275 26.9283 84.8989 28.4101C83.5193 29.892 81.8841 30.6585 80.0446 30.6585C78.2051 30.6585 76.5699 29.892 75.1903 28.4101C73.8106 26.9283 73.1463 25.1398 73.1463 22.9937Z" fill="#323264"/>
<path d="M118.724 35.7683V19.9278C118.724 17.3218 117.753 15.1246 115.863 13.3872C113.972 11.5988 111.519 10.7301 108.504 10.7301C107.329 10.7301 106.154 10.8834 105.03 11.19C103.906 11.5477 102.986 11.9054 102.321 12.3142C101.657 12.7229 100.993 13.1828 100.38 13.7449C99.7666 14.2559 99.4089 14.6136 99.2045 14.818C99.0512 15.0224 98.8979 15.1757 98.7957 15.329L102.117 18.6504L102.781 17.7817C103.19 17.2196 103.906 16.7086 104.979 16.1465C106.052 15.5845 107.227 15.329 108.504 15.329C109.986 15.329 111.213 15.7888 112.183 16.6575C113.154 17.5262 113.614 18.6504 113.614 19.9278L104.672 21.4608C102.475 21.8185 100.686 22.6871 99.46 24.0668C98.1825 25.4464 97.5182 27.1327 97.5182 29.1255C97.5182 31.0162 98.3358 32.6513 99.971 34.0821C101.657 35.5639 103.701 36.2793 106.205 36.2793C107.074 36.2793 107.891 36.1771 108.709 35.9216C109.577 35.7172 110.242 35.4617 110.804 35.2062C111.366 34.9507 111.877 34.6442 112.337 34.2865C112.797 33.9288 113.103 33.6733 113.308 33.5711C113.461 33.4178 113.563 33.2645 113.614 33.2134V35.7683H118.724ZM106.971 31.6804C105.643 31.6804 104.57 31.3739 103.803 30.7607C102.986 30.1475 102.628 29.4321 102.628 28.6145C102.628 27.7459 102.884 26.9794 103.446 26.4173C104.008 25.8552 104.774 25.4464 105.694 25.2931L113.614 24.0157V24.5267C113.614 26.8261 113.052 28.5634 111.877 29.8409C110.702 31.0673 109.066 31.6804 106.971 31.6804Z" fill="#323264"/>
<path d="M130 0H124.89V35.7689H130V0Z" fill="#323264"/>
<path d="M0 53.1185H1.59915V58.7253H5.06396V60.0283H0V53.1185Z" fill="#323264"/>
<path d="M15.5016 58.5477H12.2934L11.6814 60.0283H10.0428L13.1226 53.1185H14.702L17.7917 60.0283H16.1136L15.5016 58.5477ZM14.9982 57.3335L13.9025 54.688L12.8067 57.3335H14.9982Z" fill="#323264"/>
<path d="M33.5121 53.1185L31.2516 60.0283H29.534L28.0138 55.3494L26.4443 60.0283H24.7366L22.4662 53.1185H24.1245L25.6842 57.9751L27.313 53.1185H28.7937L30.3731 58.0146L31.9821 53.1185H33.5121Z" fill="#323264"/>
<path d="M50.5232 60.1468C49.819 60.1468 49.1807 59.9954 48.6082 59.6927C48.0422 59.3834 47.5947 58.959 47.2657 58.4193C46.9432 57.8731 46.782 57.2578 46.782 56.5734C46.782 55.889 46.9432 55.277 47.2657 54.7373C47.5947 54.1911 48.0422 53.7667 48.6082 53.464C49.1807 53.1547 49.8223 53 50.5331 53C51.1319 53 51.6716 53.1053 52.152 53.3159C52.6389 53.5265 53.047 53.8292 53.376 54.224L52.3494 55.1717C51.8821 54.6321 51.303 54.3622 50.612 54.3622C50.1843 54.3622 49.8026 54.4577 49.467 54.6485C49.1313 54.8328 48.8681 55.0927 48.6773 55.4283C48.493 55.764 48.4009 56.1456 48.4009 56.5734C48.4009 57.0012 48.493 57.3828 48.6773 57.7185C48.8681 58.0541 49.1313 58.3173 49.467 58.5082C49.8026 58.6924 50.1843 58.7846 50.612 58.7846C51.303 58.7846 51.8821 58.5115 52.3494 57.9653L53.376 58.9129C53.047 59.3143 52.6389 59.6203 52.152 59.8309C51.665 60.0415 51.1221 60.1468 50.5232 60.1468Z" fill="#323264"/>
<path d="M62.5933 60.1468C61.876 60.1468 61.2278 59.9922 60.6487 59.6829C60.0761 59.3736 59.6253 58.9491 59.2963 58.4095C58.9738 57.8632 58.8126 57.2512 58.8126 56.5734C58.8126 55.8956 58.9738 55.2868 59.2963 54.7472C59.6253 54.201 60.0761 53.7733 60.6487 53.464C61.2278 53.1547 61.876 53 62.5933 53C63.3106 53 63.9555 53.1547 64.5281 53.464C65.1006 53.7733 65.5514 54.201 65.8804 54.7472C66.2095 55.2868 66.374 55.8956 66.374 56.5734C66.374 57.2512 66.2095 57.8632 65.8804 58.4095C65.5514 58.9491 65.1006 59.3736 64.5281 59.6829C63.9555 59.9922 63.3106 60.1468 62.5933 60.1468ZM62.5933 58.7846C63.0013 58.7846 63.3698 58.6924 63.6989 58.5082C64.0279 58.3173 64.2846 58.0541 64.4688 57.7185C64.6597 57.3828 64.7551 57.0012 64.7551 56.5734C64.7551 56.1456 64.6597 55.764 64.4688 55.4283C64.2846 55.0927 64.0279 54.8328 63.6989 54.6485C63.3698 54.4577 63.0013 54.3622 62.5933 54.3622C62.1853 54.3622 61.8168 54.4577 61.4877 54.6485C61.1587 54.8328 60.8987 55.0927 60.7079 55.4283C60.5236 55.764 60.4315 56.1456 60.4315 56.5734C60.4315 57.0012 60.5236 57.3828 60.7079 57.7185C60.8987 58.0541 61.1587 58.3173 61.4877 58.5082C61.8168 58.6924 62.1853 58.7846 62.5933 58.7846Z" fill="#323264"/>
<path d="M78.7995 60.0283L78.7896 55.8824L76.7561 59.2979H76.0355L74.0119 55.9713V60.0283H72.5115V53.1185H73.8342L76.4205 57.4125L78.9673 53.1185H80.2802L80.2999 60.0283H78.7995Z" fill="#323264"/>
<path d="M89.8659 53.1185C90.478 53.1185 91.0077 53.2205 91.4552 53.4245C91.9093 53.6285 92.2581 53.918 92.5016 54.2931C92.7451 54.6682 92.8668 55.1125 92.8668 55.6258C92.8668 56.1325 92.7451 56.5767 92.5016 56.9584C92.2581 57.3335 91.9093 57.623 91.4552 57.8271C91.0077 58.0245 90.478 58.1232 89.8659 58.1232H88.4741V60.0283H86.8749V53.1185H89.8659ZM89.7771 56.8202C90.2575 56.8202 90.6227 56.7182 90.8728 56.5142C91.1229 56.3036 91.2479 56.0074 91.2479 55.6258C91.2479 55.2375 91.1229 54.9414 90.8728 54.7373C90.6227 54.5268 90.2575 54.4215 89.7771 54.4215H88.4741V56.8202H89.7771Z" fill="#323264"/>
<path d="M103.148 58.5477H99.9396L99.3276 60.0283H97.6889L100.769 53.1185H102.348L105.438 60.0283H103.76L103.148 58.5477ZM102.644 57.3335L101.549 54.688L100.453 57.3335H102.644Z" fill="#323264"/>
<path d="M117.428 53.1185V60.0283H116.115L112.67 55.8331V60.0283H111.09V53.1185H112.413L115.848 57.3137V53.1185H117.428Z" fill="#323264"/>
<path d="M127.315 57.5803V60.0283H125.716V57.5605L123.041 53.1185H124.739L126.585 56.1884L128.43 53.1185H130L127.315 57.5803Z" fill="#323264"/>
<path fill-rule="evenodd" clip-rule="evenodd" d="M149.175 0H155L139.825 47H134L149.175 0Z" fill="#F0145A"/>
<path d="M172.536 33.848C172.056 34.28 171.456 34.616 170.736 34.856C170.04 35.072 169.308 35.18 168.54 35.18C166.764 35.18 165.396 34.7 164.436 33.74C163.476 32.78 162.996 31.424 162.996 29.672V18.224H159.612V16.064H162.996V11.924H165.552V16.064H171.312V18.224H165.552V29.528C165.552 30.656 165.828 31.52 166.38 32.12C166.956 32.696 167.772 32.984 168.828 32.984C169.356 32.984 169.86 32.9 170.34 32.732C170.844 32.564 171.276 32.324 171.636 32.012L172.536 33.848ZM193.009 26.324H177.169C177.313 28.292 178.069 29.888 179.437 31.112C180.805 32.312 182.533 32.912 184.621 32.912C185.797 32.912 186.877 32.708 187.861 32.3C188.845 31.868 189.697 31.244 190.417 30.428L191.857 32.084C191.017 33.092 189.961 33.86 188.689 34.388C187.441 34.916 186.061 35.18 184.549 35.18C182.605 35.18 180.877 34.772 179.365 33.956C177.877 33.116 176.713 31.964 175.873 30.5C175.033 29.036 174.613 27.38 174.613 25.532C174.613 23.684 175.009 22.028 175.801 20.564C176.617 19.1 177.721 17.96 179.113 17.144C180.529 16.328 182.113 15.92 183.865 15.92C185.617 15.92 187.189 16.328 188.581 17.144C189.973 17.96 191.065 19.1 191.857 20.564C192.649 22.004 193.045 23.66 193.045 25.532L193.009 26.324ZM183.865 18.116C182.041 18.116 180.505 18.704 179.257 19.88C178.033 21.032 177.337 22.544 177.169 24.416H190.597C190.429 22.544 189.721 21.032 188.473 19.88C187.249 18.704 185.713 18.116 183.865 18.116ZM204.344 15.92C206.816 15.92 208.712 16.544 210.032 17.792C211.352 19.016 212.012 20.84 212.012 23.264V35H209.564V32.048C208.988 33.032 208.136 33.8 207.008 34.352C205.904 34.904 204.584 35.18 203.048 35.18C200.936 35.18 199.256 34.676 198.008 33.668C196.76 32.66 196.136 31.328 196.136 29.672C196.136 28.064 196.712 26.768 197.864 25.784C199.04 24.8 200.9 24.308 203.444 24.308H209.456V23.156C209.456 21.524 209 20.288 208.088 19.448C207.176 18.584 205.844 18.152 204.092 18.152C202.892 18.152 201.74 18.356 200.636 18.764C199.532 19.148 198.584 19.688 197.792 20.384L196.64 18.476C197.6 17.66 198.752 17.036 200.096 16.604C201.44 16.148 202.856 15.92 204.344 15.92ZM203.444 33.164C204.884 33.164 206.12 32.84 207.152 32.192C208.184 31.52 208.952 30.56 209.456 29.312V26.216H203.516C200.276 26.216 198.656 27.344 198.656 29.6C198.656 30.704 199.076 31.58 199.916 32.228C200.756 32.852 201.932 33.164 203.444 33.164ZM242.571 15.92C244.947 15.92 246.807 16.604 248.151 17.972C249.519 19.34 250.203 21.356 250.203 24.02V35H247.647V24.272C247.647 22.304 247.167 20.804 246.207 19.772C245.271 18.74 243.939 18.224 242.211 18.224C240.243 18.224 238.695 18.836 237.567 20.06C236.439 21.26 235.875 22.928 235.875 25.064V35H233.319V24.272C233.319 22.304 232.839 20.804 231.879 19.772C230.943 18.74 229.599 18.224 227.847 18.224C225.903 18.224 224.355 18.836 223.203 20.06C222.075 21.26 221.511 22.928 221.511 25.064V35H218.955V16.064H221.403V19.52C222.075 18.368 223.011 17.48 224.211 16.856C225.411 16.232 226.791 15.92 228.351 15.92C229.935 15.92 231.303 16.256 232.455 16.928C233.631 17.6 234.507 18.596 235.083 19.916C235.779 18.668 236.775 17.696 238.071 17C239.391 16.28 240.891 15.92 242.571 15.92Z" fill="#323264"/>
</g>
<defs>
<clipPath id="clip0_35505_2679">
<rect width="254" height="60" fill="white"/>
</clipPath>
</defs>
</svg>
